<?xml version="1.0" encoding="iso-8859-1"?>
<!-- Generator: Adobe Illustrator 19.0.0, SVG Export Plug-In . SVG Version: 6.00 Build 0)  -->
<svg version="1.1" id="Layer_1" xmlns="http://www.w3.org/2000/svg" xmlns:xlink="http://www.w3.org/1999/xlink" x="0px" y="0px"
	 viewBox="0 0 496.158 496.158" style="enable-background:new 0 0 496.158 496.158;" xml:space="preserve">
<path style="fill:#48A1AF;" d="M496.158,248.085c0-137.022-111.07-248.082-248.076-248.082C111.07,0.003,0,111.063,0,248.085
	c0,137.001,111.07,248.07,248.082,248.07C385.088,496.155,496.158,385.086,496.158,248.085z"/>
<polygon style="fill:#30302E;" points="347.579,408.166 148.579,408.166 148.579,173.079 248.079,105.079 347.579,173.079 "/>
<path style="fill:#9BD1DD;" d="M247.745,333.4c-77.166,0-139.095,22.054-146.407,49.333c-3.259,12.158-6.962,35.192-10.126,57.525
	c42.747,34.934,97.357,55.897,156.87,55.897c59.509,0,114.116-20.963,156.862-55.896c-3.164-22.333-6.867-45.368-10.126-57.527
	C387.506,355.454,324.911,333.4,247.745,333.4z"/>
<polygon style="fill:#D4D6D8;" points="210.167,335.412 247.787,363.485 285.991,335.412 287.852,322.246 247.829,316.996 
	208.306,322.246 "/>
<path style="fill:#E2A379;" d="M286.969,282.118h-77.78c12.136,36.588,0.978,53.294,0.978,53.294l26.912,12.917h22l26.912-12.917
	C285.991,335.412,274.833,318.706,286.969,282.118z"/>
<path style="fill:#F4B382;" d="M327.832,175.175c0-92.429-35.707-113.596-79.752-113.596c-44.047,0-79.754,21.167-79.754,113.596
	c0,31.266,5.595,55.765,13.973,74.673c18.432,41.598,50.335,56.136,65.781,56.136s47.349-14.538,65.78-56.136
	C322.237,230.94,327.832,206.441,327.832,175.175z"/>
<path style="fill:#30302E;" d="M347.302,175.175c0-92.428-44.423-113.596-99.222-113.596l0,0h-0.001h-0.001l0,0
	c-54.798,0-99.222,21.168-99.222,113.596c0,0,130.131-1.449,130.131-35.096C278.987,173.726,347.302,175.175,347.302,175.175z"/>
<path style="fill:#E2A379;" d="M210.167,335.412c0,0,16.828,28.073,37.62,28.073s38.204-28.073,38.204-28.073l-38.162-18.417
	L210.167,335.412z"/>
<g>
	<path style="fill:#F4B382;" d="M160.643,207.708c4.303,25.159,9.645,26.329,17.268,25.025l-8.146-54.771
		C162.141,179.266,156.343,182.549,160.643,207.708z"/>
	<path style="fill:#F4B382;" d="M326.491,177.962l-8.146,54.771c7.625,1.304,12.967,0.134,17.268-25.025
		S334.114,179.266,326.491,177.962z"/>
</g>
<g>
	<path style="fill:#30302E;" d="M174.746,183.079c-0.427-2.699-0.49-5.166-0.419-7.147c0.103-2.851,0.486-4.687,0.486-4.687
		l-9.375,3.5c-0.018,1.428-0.025,2.872-0.025,4.333c0,0,1.012-0.325,2.799-0.944c-0.085,0.029-0.175,0.061-0.256,0.088
		c1.288,2.19,2.903,5.552,4.457,10.522C172.413,188.746,176.075,191.474,174.746,183.079z"/>
	<path style="fill:#30302E;" d="M321.87,175.954c0.07,1.978,0.006,4.436-0.42,7.126c-1.328,8.394,2.334,5.667,2.334,5.667
		c1.55-4.96,3.154-8.322,4.432-10.516c1.619,0.557,2.529,0.849,2.529,0.849c0-1.466-0.008-2.915-0.025-4.347l-9.337-3.486
		C321.383,171.246,321.768,173.091,321.87,175.954"/>
</g>
<path style="fill:#D6876B;" d="M274.745,263.746c0,0-14.24,9.583-26.666,9.583s-26.666-9.583-26.666-9.583
	c0-1.36,11.307-5.257,16.105-5.98c2.994-0.451,10.561,2.48,10.561,2.48s7.461-2.939,10.432-2.5
	C263.382,258.466,274.745,263.746,274.745,263.746z"/>
<path style="fill:#CC785E;" d="M274.745,263.746c0,0-14.24,13.458-26.666,13.458s-26.666-13.458-26.666-13.458
	s6.491,1.527,19.641,0.717c2.217-0.137,5.101,1.617,7.025,1.617c1.666,0,4.176-1.773,6.127-1.668
	C267.862,265.144,274.745,263.746,274.745,263.746z"/>
<g>
	<path style="fill:#E4E9ED;" d="M248.155,427.912c17.688,0,46.424-92.5,46.424-92.5l-46.791,28.417l-46.21-28.417
		C201.578,335.412,230.467,427.912,248.155,427.912z"/>
	<path style="fill:#E4E9ED;" d="M305.745,337.792l-17.893-15.547l-39.794,41.583c0,0,34.03-5.074,34.198-5.241L305.745,337.792z"/>
	<path style="fill:#E4E9ED;" d="M190.412,337.792l17.894-15.547l39.753,41.583c0,0-33.989-5.074-34.157-5.241L190.412,337.792z"/>
</g>
<g>
	<path style="fill:#62A4AF;" d="M196.579,332.371l-12.5,6.438l8,41.771l16.334-3.667l-12,14.667l51.666,51.415l-0.021-15.083
		c0,0-33.989-69.157-34.157-69.324L196.579,332.371z"/>
	<path style="fill:#62A4AF;" d="M299.579,332.371l12.5,6.438l-8,41.771l-16.333-3.667l12,14.667l-51.667,51.415l0.021-15.083
		c0,0,33.989-69.157,34.156-69.324L299.579,332.371z"/>
</g>
<path style="fill:#D6E7F2;" d="M343.079,450.709h-76.5v44.752c26.923-1.985,52.65-8.261,76.5-18.159V450.709z"/>
<g>
	<rect x="266.579" y="449.849" style="fill:#556877;" width="76.5" height="6.223"/>
	<path style="fill:#556877;" d="M335.415,465.845h-31.182c-0.875,0-1.585-0.709-1.585-1.585c0-0.876,0.71-1.586,1.585-1.586h31.182
		c0.876,0,1.586,0.71,1.586,1.586C337.001,465.135,336.291,465.845,335.415,465.845z"/>
	<path style="fill:#556877;" d="M335.415,477.736h-31.182c-0.875,0-1.585-0.71-1.585-1.586c0-0.875,0.71-1.585,1.585-1.585h31.182
		c0.876,0,1.586,0.71,1.586,1.585C337.001,477.026,336.291,477.736,335.415,477.736z"/>
	<path style="fill:#556877;" d="M304.233,486.456c-0.875,0-1.585,0.709-1.585,1.586c0,0.875,0.71,1.585,1.585,1.585h0.554
		c4.098-0.958,8.159-2.012,12.175-3.171H304.233z"/>
	<rect x="272.519" y="461.089" style="fill:#556877;" width="23.387" height="29.728"/>
</g>
<g>
</g>
<g>
</g>
<g>
</g>
<g>
</g>
<g>
</g>
<g>
</g>
<g>
</g>
<g>
</g>
<g>
</g>
<g>
</g>
<g>
</g>
<g>
</g>
<g>
</g>
<g>
</g>
<g>
</g>
</svg>
