<?xml version="1.0" encoding="iso-8859-1"?>
<!-- Generator: Adobe Illustrator 19.0.0, SVG Export Plug-In . SVG Version: 6.00 Build 0)  -->
<svg version="1.1" id="Layer_1" xmlns="http://www.w3.org/2000/svg" xmlns:xlink="http://www.w3.org/1999/xlink" x="0px" y="0px"
	 viewBox="0 0 496.158 496.158" style="enable-background:new 0 0 496.158 496.158;" xml:space="preserve">
<path style="fill:#48A1AF;" d="M496.158,248.085c0-137.022-111.07-248.082-248.076-248.082C111.07,0.003,0,111.063,0,248.085
	c0,137.001,111.07,248.07,248.082,248.07C385.088,496.155,496.158,385.086,496.158,248.085z"/>
<polygon style="fill:#D4D6D8;" points="210.167,335.412 247.787,363.485 285.991,335.412 287.852,322.246 247.829,316.996 
	208.306,322.246 "/>
<path style="fill:#9BD1DD;" d="M248.082,496.155c70.204,0,133.589-29.171,178.719-76.042c-2.755-15.131-5.644-28.901-8.284-37.38
	c-8.494-27.279-81.197-49.333-170.825-49.333S86.133,355.454,77.64,382.733c-2.64,8.479-5.529,22.247-8.283,37.377
	C114.486,466.983,177.874,496.155,248.082,496.155z"/>
<path style="fill:#D6E7F2;" d="M343.079,450.709h-76.5v44.752c26.923-1.985,52.65-8.261,76.5-18.159V450.709z"/>
<g>
	<rect x="266.579" y="449.849" style="fill:#556877;" width="76.5" height="6.223"/>
	<path style="fill:#556877;" d="M335.415,465.845h-31.182c-0.875,0-1.585-0.709-1.585-1.585c0-0.876,0.71-1.586,1.585-1.586h31.182
		c0.876,0,1.586,0.71,1.586,1.586C337.001,465.135,336.291,465.845,335.415,465.845z"/>
	<path style="fill:#556877;" d="M335.415,477.736h-31.182c-0.875,0-1.585-0.71-1.585-1.586c0-0.875,0.71-1.585,1.585-1.585h31.182
		c0.876,0,1.586,0.71,1.586,1.585C337.001,477.026,336.291,477.736,335.415,477.736z"/>
	<path style="fill:#556877;" d="M304.233,486.456c-0.875,0-1.585,0.709-1.585,1.586c0,0.875,0.71,1.585,1.585,1.585h0.554
		c4.098-0.958,8.159-2.012,12.175-3.171H304.233z"/>
	<rect x="272.519" y="461.089" style="fill:#556877;" width="23.387" height="29.728"/>
</g>
<g>
	<path style="fill:#8C502F;" d="M286.969,282.118h-77.78c12.136,36.588,0.978,53.294,0.978,53.294l26.912,6.063h22l26.912-6.062
		C285.991,335.412,274.833,318.706,286.969,282.118z"/>
	<path style="fill:#8C502F;" d="M210.167,335.412c0,0,16.828,28.073,37.62,28.073s38.204-28.073,38.204-28.073l-38.162-18.417
		L210.167,335.412z"/>
</g>
<g>
	<path style="fill:#9B5C32;" d="M336.332,175.175c0-92.429-39.513-113.596-88.252-113.596c-48.741,0-88.254,21.167-88.254,113.596
		c0,31.266,6.19,55.765,15.462,74.673c20.396,41.598,55.7,56.136,72.792,56.136s52.396-14.538,72.79-56.136
		C330.141,230.94,336.332,206.441,336.332,175.175z"/>
	<path style="fill:#9B5C32;" d="M170.413,238.639c-8.439,1.443-14.352,0.148-19.112-27.698s1.657-31.479,10.096-32.922
		L170.413,238.639z"/>
	<path style="fill:#9B5C32;" d="M325.845,238.639c8.438,1.443,14.35,0.148,19.111-27.698s-1.658-31.479-10.096-32.922
		L325.845,238.639z"/>
</g>
<path style="fill:#844A2C;" d="M276.745,264.792c0,2.713-12.834,10.134-28.666,10.134s-28.666-7.421-28.666-10.134
	c0-1.671,9.097-6.459,15.21-7.347c3.816-0.554,13.456,3.047,13.456,3.047s9.506-3.61,13.291-3.071
	C267.576,258.307,276.745,264.792,276.745,264.792z"/>
<path style="fill:#7A4229;" d="M276.745,264.792c0,2.713-12.834,13.205-28.666,13.205s-28.666-10.492-28.666-13.205
	c0,0,11.678,1.354,28.666,1.354S276.745,264.792,276.745,264.792z"/>
<g>
	<path style="fill:#30302E;" d="M336.332,175.175c0-92.429-39.513-113.596-88.252-113.596c-48.741,0-88.254,21.167-88.254,113.596
		l134.411-68.399L336.332,175.175z"/>
	<path style="fill:#30302E;" d="M165.454,140.767c-4.25,10.875-5.628,24.359-5.628,37.479c0,0,8.753-1.917,8.753,2.583l2.75,27.625
		l3.875-1.875c-0.25-23,4.875-64.833,4.875-64.833L165.454,140.767z"/>
	<path style="fill:#30302E;" d="M330.803,140.767c4.25,10.875,5.628,24.359,5.628,37.479c0,0-8.753-1.917-8.753,2.583l-2.75,27.625
		l-3.875-1.875c0.25-23-4.875-66.167-4.875-66.167L330.803,140.767z"/>
</g>
<g>
	<path style="fill:#E4E9ED;" d="M248.155,427.912c17.688,0,46.424-92.5,46.424-92.5l-46.791,28.417l-46.21-28.417
		C201.578,335.412,230.467,427.912,248.155,427.912z"/>
	<path style="fill:#E4E9ED;" d="M305.745,337.792l-17.893-15.547l-39.794,41.583c0,0,34.03-5.074,34.198-5.241L305.745,337.792z"/>
	<path style="fill:#E4E9ED;" d="M190.412,337.792l17.894-15.547l39.753,41.583c0,0-33.989-5.074-34.157-5.241L190.412,337.792z"/>
</g>
<g>
	<path style="fill:#62A4AF;" d="M196.579,332.371l-12.5,6.438l8,41.771l16.334-3.667l-12,14.667l51.666,51.415l-0.021-15.083
		c0,0-33.989-69.157-34.157-69.324L196.579,332.371z"/>
	<path style="fill:#62A4AF;" d="M299.579,332.371l12.5,6.438l-8,41.771l-16.333-3.667l12,14.667l-51.667,51.415l0.021-15.083
		c0,0,33.989-69.157,34.156-69.324L299.579,332.371z"/>
</g>
<g>
</g>
<g>
</g>
<g>
</g>
<g>
</g>
<g>
</g>
<g>
</g>
<g>
</g>
<g>
</g>
<g>
</g>
<g>
</g>
<g>
</g>
<g>
</g>
<g>
</g>
<g>
</g>
<g>
</g>
</svg>
