<?xml version="1.0" encoding="iso-8859-1"?>
<!-- Generator: Adobe Illustrator 19.0.0, SVG Export Plug-In . SVG Version: 6.00 Build 0)  -->
<svg version="1.1" id="Layer_1" xmlns="http://www.w3.org/2000/svg" xmlns:xlink="http://www.w3.org/1999/xlink" x="0px" y="0px"
	 viewBox="0 0 496.158 496.158" style="enable-background:new 0 0 496.158 496.158;" xml:space="preserve">
<path style="fill:#337180;" d="M496.158,248.085c0-137.022-111.07-248.082-248.076-248.082C111.07,0.003,0,111.063,0,248.085
	c0,137.001,111.07,248.07,248.082,248.07C385.088,496.155,496.158,385.086,496.158,248.085z"/>
<polygon style="fill:#B1B1B2;" points="197.888,340.579 247.787,363.485 298.27,340.579 286.302,325.079 247.829,316.996 
	209.856,325.079 "/>
<path style="fill:#1D1D1E;" d="M247.745,333.4c-77.166,0-139.095,22.054-146.407,49.333c-3.259,12.158-6.962,35.192-10.126,57.525
	c42.747,34.934,97.357,55.897,156.87,55.897c59.509,0,114.116-20.963,156.862-55.896c-3.164-22.333-6.867-45.368-10.126-57.527
	C387.506,355.454,324.911,333.4,247.745,333.4z"/>
<path style="fill:#E2A379;" d="M286.969,282.118h-77.78c12.136,36.588,0.978,53.294,0.978,53.294l26.912,12.917h22l26.912-12.917
	C285.991,335.412,274.833,318.706,286.969,282.118z"/>
<path style="fill:#F4B382;" d="M327.832,175.175c0-92.429-35.707-113.596-79.752-113.596c-44.047,0-79.754,21.167-79.754,113.596
	c0,31.266,5.595,55.765,13.973,74.673c18.432,41.598,50.335,56.136,65.781,56.136s47.349-14.538,65.78-56.136
	C322.237,230.94,327.832,206.441,327.832,175.175z"/>
<path style="fill:#A02B18;" d="M270.579,268.079c0,0-10.074,5.25-22.5,5.25s-22.5-5.25-22.5-5.25c0-1.36,7.141-9.591,11.939-10.313
	c2.994-0.451,10.561,2.48,10.561,2.48s7.461-2.939,10.432-2.5C263.382,258.466,270.579,268.079,270.579,268.079z"/>
<path style="fill:#911B0F;" d="M270.579,268.079c0,0-10.074,9.125-22.5,9.125s-22.5-9.125-22.5-9.125s2.325-2.807,15.475-3.617
	c2.217-0.137,5.101,1.617,7.025,1.617c1.666,0,4.176-1.773,6.127-1.668C267.862,265.144,270.579,268.079,270.579,268.079z"/>
<path style="fill:#E2A379;" d="M210.167,335.412c0,0,16.828,93.167,37.62,93.167s38.204-93.167,38.204-93.167l-38.162-18.417
	L210.167,335.412z"/>
<g>
	<path style="fill:#D39409;" d="M294.911,330.387c-8.564,11.11-33.675,39.942-46.832,39.942s-38.268-28.833-46.832-39.942
		l-6.336,4.884c3.396,4.407,33.745,43.058,53.168,43.058s49.771-38.651,53.168-43.058L294.911,330.387z"/>
	<polygon style="fill:#D39409;" points="248.079,374.384 242.225,383.847 248.079,393.309 253.933,383.847 	"/>
	<polygon style="fill:#D39409;" points="256.192,371.391 252.45,377.441 256.192,383.491 259.938,377.441 	"/>
	<polygon style="fill:#D39409;" points="239.961,371.391 236.22,377.441 239.961,383.491 243.705,377.441 	"/>
</g>
<g>
	<path style="fill:#F4B382;" d="M160.643,207.708c4.303,25.159,9.645,26.329,17.268,25.025l-8.146-54.771
		C162.141,179.266,156.343,182.549,160.643,207.708z"/>
	<path style="fill:#F4B382;" d="M326.491,177.962l-8.146,54.771c7.625,1.304,12.967,0.134,17.268-25.025
		S334.114,179.266,326.491,177.962z"/>
</g>
<g>
	<ellipse style="fill:#4C230C;" cx="248.079" cy="66.079" rx="41.998" ry="28.668"/>
	<path style="fill:#4C230C;" d="M330.745,179.079c0-92.428-25.333-117.5-82.666-117.5s-82.666,25.072-82.666,117.5
		c0,0,122.666-26.5,122.666-60.147C288.079,152.579,330.745,179.079,330.745,179.079z"/>
	<path style="fill:#4C230C;" d="M174.746,183.079c-0.427-2.699-0.49-5.166-0.419-7.147c0.103-2.851,0.486-4.687,0.486-4.687
		l-9.375,3.5c-0.018,1.428-0.025,2.872-0.025,4.333c0,0,1.012-0.325,2.799-0.944c-0.085,0.029-0.175,0.061-0.256,0.088
		c1.288,2.19,2.903,5.552,4.457,10.522C172.413,188.746,176.075,191.474,174.746,183.079z"/>
	<path style="fill:#4C230C;" d="M321.87,175.954c0.07,1.978,0.006,4.436-0.42,7.126c-1.328,8.394,2.334,5.667,2.334,5.667
		c1.55-4.96,3.154-8.322,4.432-10.516c1.619,0.557,2.529,0.849,2.529,0.849c0-1.466-0.008-2.915-0.025-4.347l-9.337-3.486
		C321.383,171.246,321.768,173.091,321.87,175.954"/>
</g>
<g>
	<polygon style="fill:#D39409;" points="326.62,223.384 320.766,232.847 326.62,242.309 332.474,232.847 	"/>
	<polygon style="fill:#D39409;" points="169.433,223.384 163.578,232.847 169.433,242.309 175.286,232.847 	"/>
</g>
<g>
	<path style="fill:#C9C9C9;" d="M209.856,325.079l-25.777,13.729l8,42.271l16.334-3.667l-12,14.667l51.666,66.416l-0.021-46.083
		c0,0-32.444-53.657-32.604-53.824L209.856,325.079z"/>
	<path style="fill:#C9C9C9;" d="M286.302,325.079l25.777,13.729l-8,42.271l-16.333-3.667l12,14.667l-51.667,66.416l0.021-46.083
		c0,0,32.444-53.657,32.604-53.824L286.302,325.079z"/>
</g>
<g>
</g>
<g>
</g>
<g>
</g>
<g>
</g>
<g>
</g>
<g>
</g>
<g>
</g>
<g>
</g>
<g>
</g>
<g>
</g>
<g>
</g>
<g>
</g>
<g>
</g>
<g>
</g>
<g>
</g>
</svg>
