<?xml version="1.0" encoding="iso-8859-1"?>
<!-- Generator: Adobe Illustrator 19.0.0, SVG Export Plug-In . SVG Version: 6.00 Build 0)  -->
<svg version="1.1" id="Layer_1" xmlns="http://www.w3.org/2000/svg" xmlns:xlink="http://www.w3.org/1999/xlink" x="0px" y="0px"
	 viewBox="0 0 496.158 496.158" style="enable-background:new 0 0 496.158 496.158;" xml:space="preserve">
<path style="fill:#334D5C;" d="M496.158,248.085c0-137.022-111.07-248.082-248.076-248.082C111.07,0.003,0,111.063,0,248.085
	c0,137.001,111.07,248.07,248.082,248.07C385.088,496.155,496.158,385.086,496.158,248.085z"/>
<path style="fill:#3F1C0B;" d="M248.082,496.155c70.204,0,133.589-29.171,178.719-76.042c-2.755-15.131-5.644-28.901-8.284-37.38
	c-8.494-27.279-81.197-49.333-170.825-49.333S86.133,355.454,77.64,382.733c-2.64,8.479-5.529,22.247-8.283,37.377
	C114.486,466.983,177.874,496.155,248.082,496.155z"/>
<g>
	<path style="fill:#D4D6D8;" d="M248.155,474.412c17.688,0,37.756-139,37.756-139l-38.123,26.74l-37.543-26.74
		C210.245,335.412,230.467,474.412,248.155,474.412z"/>
	<polygon style="fill:#D4D6D8;" points="210.167,335.412 247.787,363.485 285.991,335.412 287.852,322.246 247.829,316.996 
		208.306,322.246 	"/>
</g>
<path style="fill:#E2A379;" d="M286.969,282.118h-77.78c12.136,36.588,0.978,53.294,0.978,53.294l26.912,6.063h22l26.912-6.062
	C285.991,335.412,274.833,318.706,286.969,282.118z"/>
<g>
	<polygon style="fill:#F3FAFF;" points="282.079,358.746 287.852,322.246 305.745,337.792 	"/>
	<polygon style="fill:#F3FAFF;" points="214.079,358.746 208.306,322.246 190.412,337.792 	"/>
	<path style="fill:#F3FAFF;" d="M305.745,337.792l-17.893-15.547l-39.794,19.229c0,0,34.03,17.28,34.198,17.113L305.745,337.792z"/>
	<path style="fill:#F3FAFF;" d="M190.412,337.792l17.894-15.547l39.753,19.229c0,0-33.989,17.28-34.157,17.113L190.412,337.792z"/>
</g>
<g>
	<polygon style="fill:#86B4D1;" points="248.048,341.475 232.329,349.417 248.048,375.017 263.767,349.417 	"/>
	<path style="fill:#86B4D1;" d="M248.155,474.412c5.087,0,10.371-11.511,15.318-27.895l-11.363-84.605h-8.141l-11.263,84.289
		C237.7,462.758,243.034,474.412,248.155,474.412z"/>
</g>
<g>
	<path style="fill:#230F07;" d="M196.579,332.371l-12.5,5.208l-4.334,29.5l19.395,7.702l-8.766,16.965l57.705,97.749l-0.021-15.083
		c0,0-33.989-115.657-34.157-115.824L196.579,332.371z"/>
	<path style="fill:#230F07;" d="M299.579,332.371l12.5,5.208l4.334,29.5l-19.395,7.702l8.767,16.965l-57.706,97.749l0.021-15.083
		c0,0,33.989-115.657,34.156-115.824L299.579,332.371z"/>
</g>
<path style="fill:#F4B382;" d="M336.332,175.175c0-92.429-39.513-113.596-88.252-113.596c-48.741,0-88.254,21.167-88.254,113.596
	c0,31.266,6.19,55.765,15.462,74.673c20.396,41.598,55.7,56.136,72.792,56.136s52.396-14.538,72.79-56.136
	C330.141,230.94,336.332,206.441,336.332,175.175z"/>
<g>
	<path style="fill:#898888;" d="M210.931,235.892c0,0,1.646-2.307,0.692-4.385c-2.68-5.848-11.604-1.473-10.998,6.494
		c0,0,0.6,16.541,24.153,17.32c6.14,0.205,14.472-1.125,21.14-8.486c4.605-5.084,3.352-14.443-2.556-16.619
		c-6.365-2.346-14.546-0.646-20.653,8.652c-5.803,8.832-17.249,2.691-17.062-3.205C205.822,230.209,212.142,232.342,210.931,235.892
		z"/>
	<path style="fill:#898888;" d="M285.226,235.892c0,0-1.645-2.307-0.693-4.385c2.679-5.848,11.605-1.473,11,6.494
		c0,0-0.6,16.541-24.156,17.32c-6.137,0.205-14.469-1.125-21.137-8.486c-4.605-5.084-3.352-14.443,2.555-16.619
		c6.365-2.346,14.547-0.646,20.654,8.652c5.803,8.832,17.248,2.691,17.061-3.205C290.336,230.209,284.013,232.342,285.226,235.892z"
		/>
</g>
<path style="fill:#F4B382;" d="M170.413,238.639c-8.439,1.443-14.352,0.148-19.112-27.698s1.657-31.479,10.096-32.922
	L170.413,238.639z"/>
<path style="fill:#898888;" d="M161.979,140.767c-4.429,10.875-3.9,24.812-2.153,37.479c0,0,8.753-1.917,8.753,2.583l2.75,27.625
	l3.875-1.875c-0.25-23,4.875-64.5,4.875-64.5L161.979,140.767z"/>
<path style="fill:#F4B382;" d="M325.845,238.639c8.438,1.443,14.35,0.148,19.111-27.698s-1.658-31.479-10.096-32.922
	L325.845,238.639z"/>
<path style="fill:#898888;" d="M334.277,140.767c4.429,10.875,3.802,24.312,2.153,37.479c0,0-8.754-1.917-8.754,2.583l-2.749,27.625
	l-3.875-1.875c0.25-23-4.876-64.5-4.876-64.5L334.277,140.767z"/>
<path style="fill:#1D1D1E;" d="M345.329,140.112l-13.457-14.769l7.707-87.93c0-0.829-0.706-1.5-1.578-1.5H158.157
	c-0.872,0-1.578,0.671-1.578,1.5l7.706,87.931l-13.456,14.769c-0.324,0.585-0.334,1.294-0.025,1.888
	c0.307,0.594,0.893,0.995,1.557,1.067c0.501,0.055,50.613,5.512,94.219,5.512c43.6,0,96.676-5.456,97.207-5.511
	c0.667-0.069,1.255-0.469,1.566-1.063C345.663,141.41,345.654,140.699,345.329,140.112z"/>
<path style="fill:#494949;" d="M163.072,111.503l1.213,13.84c0,0,38.688,3.736,82.294,3.736c43.6,0,85.293-3.736,85.293-3.736
	l1.217-13.888c-16.064,1.208-50.805,3.458-86.697,3.458C210.966,114.912,178.427,112.722,163.072,111.503z"/>
<g>
</g>
<g>
</g>
<g>
</g>
<g>
</g>
<g>
</g>
<g>
</g>
<g>
</g>
<g>
</g>
<g>
</g>
<g>
</g>
<g>
</g>
<g>
</g>
<g>
</g>
<g>
</g>
<g>
</g>
</svg>
